<?xml version="1.0" standalone="no"?>
<!DOCTYPE svg PUBLIC "-//W3C//DTD SVG 20010904//EN"
 "http://www.w3.org/TR/2001/REC-SVG-20010904/DTD/svg10.dtd">
<svg version="1.0" xmlns="http://www.w3.org/2000/svg"
 width="50pt" height="40pt" viewBox="0 0 259.000000 272.000000"
 preserveAspectRatio="xMidYMid meet">

<g transform="translate(0.000000,272.000000) scale(0.100000,-0.100000)"
fill="#000000" stroke="none">
<path d="M1125 2579 c-545 -79 -978 -507 -1067 -1053 -15 -95 -15 -343 0 -436
104 -629 654 -1082 1287 -1057 320 13 589 126 817 345 199 190 322 415 375
680 26 133 23 396 -7 527 -119 535 -530 919 -1065 995 -83 11 -256 11 -340 -1z
m-88 -771 l263 -263 263 263 c144 144 267 262 272 262 5 0 54 -44 107 -97 73
-73 98 -104 98 -123 0 -20 -55 -81 -254 -281 l-255 -255 255 -255 c206 -206
254 -259 254 -281 0 -20 -23 -50 -100 -129 -55 -56 -103 -100 -105 -98 -2 2
-123 123 -269 268 l-264 264 -231 -229 c-126 -126 -248 -247 -270 -268 l-40
-39 -100 104 c-72 75 -101 111 -101 129 0 20 56 81 255 280 l255 255 -255 255
c-196 196 -255 261 -255 280 0 18 27 51 97 122 54 54 102 98 108 98 5 0 128
-118 272 -262z"/>
</g>
</svg>
